<svg width="29" height="28" viewBox="0 0 29 28" fill="none" xmlns="http://www.w3.org/2000/svg">
    <g clip-path="url(#clip0_1387_115)">
      <path
        d="M27.0259 2.51514L22.104 0.874512H7.229L2.10648 2.71573L0.666504 7.43701V18.1011C0.666504 18.5604 1.02739 18.9214 1.48682 18.9214H17.9478C18.4072 18.9214 18.7681 18.5604 18.7681 18.1011C18.7681 16.7394 19.8672 15.6401 21.229 15.6401C22.5908 15.6401 23.6899 16.7394 23.6899 18.1011C23.6899 18.5604 24.0508 18.9214 24.5103 18.9214H27.8462C28.3056 18.9214 28.6665 18.5604 28.6665 18.1011V7.43701L27.0259 2.51514ZM22.4547 20.2311C21.7273 20.6573 20.7307 20.6573 20.0033 20.2311C19.4491 19.9087 18.7681 20.3132 18.7681 20.9393V26.3042C18.7681 26.6358 18.9675 26.9354 19.2744 27.062C19.582 27.191 19.9329 27.1189 20.1684 26.8842L21.229 25.8235L22.2897 26.8842C22.5265 27.121 22.8814 27.1882 23.1837 27.0621C23.4905 26.9355 23.69 26.6359 23.69 26.3042V20.9394C23.6899 20.3097 23.0084 19.9125 22.4547 20.2311ZM21.229 19.7417C22.1342 19.7417 22.8696 19.0055 22.8696 18.1011C22.8696 17.1966 22.1342 16.4604 21.229 16.4604C20.3238 16.4604 19.5884 17.1966 19.5884 18.1011C19.5884 19.0055 20.3238 19.7417 21.229 19.7417Z"
        fill="url(#paint0_linear_1387_115)"
      ></path>
      <path
        d="M1.48682 0.874512C1.02739 0.874512 0.666504 1.23539 0.666504 1.69482V7.43701L7.229 0.874512H1.48682V0.874512ZM27.8462 0.874512H22.104L28.6665 7.43701V1.69482C28.6665 1.23539 28.3056 0.874512 27.8462 0.874512V0.874512ZM11.3853 5.79639H17.9478C18.4012 5.79639 18.7681 5.42949 18.7681 4.97607C18.7681 4.52266 18.4012 4.15576 17.9478 4.15576H11.3853C10.9318 4.15576 10.5649 4.52266 10.5649 4.97607C10.5649 5.42949 10.9318 5.79639 11.3853 5.79639ZM22.8696 7.43701H6.46338C6.00996 7.43701 5.64307 7.80391 5.64307 8.25732C5.64307 8.71074 6.00996 9.07764 6.46338 9.07764H22.8696C23.323 9.07764 23.6899 8.71074 23.6899 8.25732C23.6899 7.80391 23.323 7.43701 22.8696 7.43701ZM22.8696 10.7183H6.46338C6.00996 10.7183 5.64307 11.0852 5.64307 11.5386C5.64307 11.992 6.00996 12.3589 6.46338 12.3589H22.8696C23.323 12.3589 23.6899 11.992 23.6899 11.5386C23.6899 11.0852 23.323 10.7183 22.8696 10.7183ZM11.3853 13.9995H6.46338C6.00996 13.9995 5.64307 14.3664 5.64307 14.8198C5.64307 15.2732 6.00996 15.6401 6.46338 15.6401H11.3853C11.8387 15.6401 12.2056 15.2732 12.2056 14.8198C12.2056 14.3664 11.8387 13.9995 11.3853 13.9995ZM21.229 13.9995C18.9675 13.9995 17.1274 15.8396 17.1274 18.1011C17.1274 20.45 19.0517 22.2026 21.229 22.2026C23.4035 22.2026 25.3306 20.4509 25.3306 18.1011C25.3306 15.8396 23.4905 13.9995 21.229 13.9995ZM21.229 18.9214C20.776 18.9214 20.4087 18.5541 20.4087 18.1011C20.4087 17.6479 20.776 17.2808 21.229 17.2808C21.682 17.2808 22.0493 17.6479 22.0493 18.1011C22.0493 18.5541 21.682 18.9214 21.229 18.9214Z"
        fill="url(#paint1_linear_1387_115)"
      ></path>
    </g>
    <defs>
      <linearGradient
        id="paint0_linear_1387_115"
        x1="14.6665"
        y1="27.1254"
        x2="14.6665"
        y2="0.874512"
        gradientUnits="userSpaceOnUse"
      >
        <stop stop-color="#5558FF"></stop>
        <stop offset="1" stop-color="#00C0FF"></stop>
      </linearGradient>
      <linearGradient
        id="paint1_linear_1387_115"
        x1="14.6665"
        y1="22.2026"
        x2="14.6665"
        y2="0.874512"
        gradientUnits="userSpaceOnUse"
      >
        <stop stop-color="#ADDCFF"></stop>
        <stop offset="0.5028" stop-color="#DAEFFF"></stop>
        <stop offset="1" stop-color="#DAEFFF"></stop>
      </linearGradient>
      <clipPath id="clip0_1387_115">
        <rect width="28" height="28" fill="white" transform="translate(0.666504)"></rect>
      </clipPath>
    </defs>
  </svg>