<svg width="67" height="67" viewBox="0 0 67 67" fill="none" xmlns="http://www.w3.org/2000/svg">
<path d="M33.4999 5.58334C18.0899 5.58334 5.58325 18.09 5.58325 33.5C5.58325 48.91 18.0899 61.4167 33.4999 61.4167C48.9099 61.4167 61.4166 48.91 61.4166 33.5C61.4166 18.09 48.9099 5.58334 33.4999 5.58334ZM25.9345 45.4763L15.9124 35.4542C14.8237 34.3654 14.8237 32.6067 15.9124 31.5179C17.0012 30.4292 18.7599 30.4292 19.8487 31.5179L27.9166 39.5579L47.1233 20.3513C48.212 19.2625 49.9708 19.2625 51.0595 20.3513C52.1483 21.44 52.1483 23.1988 51.0595 24.2875L29.8708 45.4763C28.8099 46.565 27.0233 46.565 25.9345 45.4763Z" fill="#FFA500"/>
</svg>
