<svg width="67" height="67" viewBox="0 0 67 67" fill="none" xmlns="http://www.w3.org/2000/svg">
<path d="M18 3.08333C9.72 3.08333 3 9.99 3 18.5C3 27.01 9.72 33.9167 18 33.9167C26.28 33.9167 33 27.01 33 18.5C33 9.99 26.28 3.08333 18 3.08333ZM18 30.8333C11.385 30.8333 6 25.2987 6 18.5C6 11.7012 11.385 6.16667 18 6.16667C24.615 6.16667 30 11.7012 30 18.5C30 25.2987 24.615 30.8333 18 30.8333ZM23.82 12.7804L15 21.8454L12.18 18.9471C11.595 18.3458 10.65 18.3458 10.065 18.9471C9.48 19.5483 9.48 20.5196 10.065 21.1208L13.95 25.1138C14.535 25.715 15.48 25.715 16.065 25.1138L25.95 14.9542C26.535 14.3529 26.535 13.3817 25.95 12.7804C25.365 12.1792 24.405 12.1792 23.82 12.7804V12.7804Z" fill="#FFA500"/>
</svg>
