<svg width="67" height="67" viewBox="0 0 67 67" fill="none" xmlns="http://www.w3.org/2000/svg">
<path d="M33.4999 5.58334C18.0899 5.58334 5.58325 18.09 5.58325 33.5C5.58325 48.91 18.0899 61.4167 33.4999 61.4167C48.9099 61.4167 61.4166 48.91 61.4166 33.5C61.4166 18.09 48.9099 5.58334 33.4999 5.58334ZM33.4999 36.2917C31.9645 36.2917 30.7083 35.0354 30.7083 33.5V22.3333C30.7083 20.7979 31.9645 19.5417 33.4999 19.5417C35.0353 19.5417 36.2916 20.7979 36.2916 22.3333V33.5C36.2916 35.0354 35.0353 36.2917 33.4999 36.2917ZM36.2916 47.4583H30.7083V41.875H36.2916V47.4583Z" fill="#FF5E5E"/>
</svg>
