<svg width="16" height="16" viewBox="0 0 16 16" fill="none" xmlns="http://www.w3.org/2000/svg">
<path d="M13.1066 2.66044C11.3466 1.46044 9.17331 2.02044 7.99998 3.39377C6.82665 2.02044 4.65331 1.45377 2.89331 2.66044C1.95998 3.30044 1.37331 4.38044 1.33331 5.52044C1.23998 8.1071 3.53331 10.1804 7.03331 13.3604L7.09998 13.4204C7.60665 13.8804 8.38665 13.8804 8.89331 13.4138L8.96665 13.3471C12.4666 10.1738 14.7533 8.10044 14.6666 5.51377C14.6266 4.38044 14.04 3.30044 13.1066 2.66044V2.66044ZM8.06665 12.3671L7.99998 12.4338L7.93331 12.3671C4.75998 9.49377 2.66665 7.59377 2.66665 5.6671C2.66665 4.33377 3.66665 3.33377 4.99998 3.33377C6.02665 3.33377 7.02665 3.99377 7.37998 4.9071H8.62665C8.97331 3.99377 9.97331 3.33377 11 3.33377C12.3333 3.33377 13.3333 4.33377 13.3333 5.6671C13.3333 7.59377 11.24 9.49377 8.06665 12.3671Z" fill="#323232"/>
</svg>
