<svg width="25" height="24" viewBox="0 0 25 24" fill="none" xmlns="http://www.w3.org/2000/svg"><path d="M12.25 5.50006C13.7773 5.49913 15.2556 6.03883 16.423 7.02356L19.693 3.90956C18.4377 2.75211 16.9299 1.90316 15.2893 1.43009C13.6487 0.957025 11.9204 0.872862 10.2416 1.18428C8.56279 1.4957 6.97967 2.19413 5.61788 3.22415C4.25608 4.25416 3.15311 5.5874 2.39648 7.11806L6.08298 9.95957C6.51292 8.66311 7.33986 7.53478 8.44669 6.73441C9.55351 5.93404 10.8841 5.5022 12.25 5.50006V5.50006Z" fill="#D94F3D"></path><path d="M5.75 11.9992C5.75092 11.3056 5.86335 10.6166 6.083 9.95869L2.3965 7.11719C1.64242 8.63414 1.25 10.3051 1.25 11.9992C1.25 13.6932 1.64242 15.3642 2.3965 16.8812L6.083 14.0397C5.86335 13.3818 5.75092 12.6928 5.75 11.9992V11.9992Z" fill="#F2C042"></path><path d="M22.8 10H12.3V14.5H18.25C17.8961 15.7724 17.0852 16.8694 15.9725 17.581L19.6306 20.401C21.9681 18.303 23.3415 14.8915 22.8 10Z" fill="#5085ED"></path><path d="M15.971 17.5796C14.8405 18.2266 13.5517 18.5449 12.25 18.4986C10.8841 18.4964 9.55351 18.0646 8.44669 17.2642C7.33986 16.4638 6.51292 15.3355 6.08298 14.0391L2.39648 16.8806C3.30705 18.7161 4.71171 20.2612 6.45246 21.342C8.1932 22.4228 10.201 22.9965 12.25 22.9986C14.9462 23.0718 17.5743 22.1458 19.629 20.3986L15.971 17.5796Z" fill="#57A75C"></path></svg>