<svg width="38" height="40" viewBox="0 0 38 40" fill="none" xmlns="http://www.w3.org/2000/svg">
<g clip-path="url(#clip0_617_667)">
<path d="M18.9474 0C8.85347 0 0 8.1775 0 17.5C0 25.1012 4.92379 31.2725 12.6316 33.4637V38.75C12.6316 39.1838 12.8589 39.585 13.2303 39.8138C13.4337 39.9375 13.6636 40 13.8947 40C14.088 40 14.2813 39.9562 14.4594 39.8688L27.1756 33.5725C34.5891 29.17 37.8947 24.2137 37.8947 17.5C37.8947 8.1775 29.0413 0 18.9474 0ZM25.9617 31.3812L15.1579 36.7275V32.5C15.1579 31.9212 14.7549 31.4175 14.1853 31.2838C7.10274 29.625 2.52632 24.215 2.52632 17.5C2.52632 9.50875 10.2 2.5 18.9474 2.5C27.6947 2.5 35.3684 9.50875 35.3684 17.5C35.3684 23.3125 32.5288 27.4775 25.9617 31.3812Z" fill="white"/>
<path d="M21.4738 17.121L18.7353 13.056C18.4258 12.5973 17.8511 12.3935 17.318 12.5535C16.7862 12.7123 16.4212 13.1998 16.4212 13.7498V22.4998H18.9475V17.8785L21.686 21.9435C21.9248 22.2973 22.3227 22.4998 22.737 22.4998C22.8595 22.4998 22.982 22.4823 23.1033 22.446C23.6351 22.2873 24.0001 21.7998 24.0001 21.2498V12.4998H21.4738V17.121ZM31.5791 14.9998V12.4998H26.5264C25.8292 12.4998 25.2633 13.0598 25.2633 13.7498V21.2498C25.2633 21.9398 25.8292 22.4998 26.5264 22.4998H31.5791V19.9998H27.7896V18.7498H31.5791V16.2498H27.7896V14.9998H31.5791ZM8.84223 12.4998H6.31592V21.2498C6.31592 21.9398 6.88181 22.4998 7.57908 22.4998H11.3685V19.9998H8.84223V12.4998Z" fill="white"/>
<path d="M15.1577 12.5H12.6313V22.5H15.1577V12.5Z" fill="white"/>
</g>
<defs>
<clipPath id="clip0_617_667">
<rect width="37.8947" height="40" fill="white"/>
</clipPath>
</defs>
</svg>
