<svg width="40" height="40" viewBox="0 0 40 40" fill="none" xmlns="http://www.w3.org/2000/svg">
<path d="M19.9933 3.3335C10.779 3.3335 3.3335 10.7927 3.3335 19.9933C3.3335 27.0549 7.72126 33.0881 13.919 35.515C13.7682 34.1987 13.6448 32.1694 13.9738 30.7296C14.2755 29.427 15.9209 22.4477 15.9209 22.4477C15.9209 22.4477 15.4273 21.4468 15.4273 19.9796C15.4273 17.6623 16.771 15.9346 18.4439 15.9346C19.8699 15.9346 20.5555 17.0041 20.5555 18.2793C20.5555 19.7054 19.6505 21.8444 19.1706 23.8326C18.773 25.4917 20.007 26.8492 21.6387 26.8492C24.6005 26.8492 26.8766 23.7229 26.8766 19.2255C26.8766 15.2353 24.0109 12.4518 19.911 12.4518C15.1668 12.4518 12.3833 16.0032 12.3833 19.6779C12.3833 21.104 12.9317 22.6397 13.6173 23.4761C13.7545 23.6406 13.7682 23.7915 13.727 23.956C13.6036 24.4771 13.3157 25.6151 13.2608 25.8482C13.1923 26.1499 13.014 26.2185 12.6986 26.0676C10.6419 25.0804 9.35296 22.0364 9.35296 19.5957C9.35296 14.3441 13.1648 9.5175 20.3635 9.5175C26.1362 9.5175 30.6337 13.631 30.6337 19.1432C30.6337 24.8884 27.0137 29.5093 21.9952 29.5093C20.3087 29.5093 18.7181 28.6317 18.1834 27.5896C18.1834 27.5896 17.3469 30.7708 17.1413 31.5523C16.771 33.0058 15.7564 34.8157 15.0708 35.9264C16.6339 36.4063 18.2793 36.6668 20.007 36.6668C29.2076 36.6668 36.6668 29.2076 36.6668 20.007C36.6531 10.7927 29.1939 3.3335 19.9933 3.3335Z" fill="white"/>
</svg>
