<svg width="18" height="18" viewBox="0 0 18 18" fill="none" xmlns="http://www.w3.org/2000/svg">
<path d="M11.9999 12.7571V8.24965C11.9999 7.83715 11.6624 7.49965 11.2499 7.49965C10.8374 7.49965 10.4999 7.83715 10.4999 8.24965V12.7571H9.1574C8.8199 12.7571 8.6549 13.1621 8.8949 13.3946L10.9874 15.4796C11.1374 15.6221 11.3699 15.6221 11.5199 15.4796L13.6124 13.3946C13.8524 13.1621 13.6799 12.7571 13.3499 12.7571H11.9999V12.7571ZM6.4874 2.51215L4.3949 4.60465C4.1549 4.83715 4.3199 5.24215 4.6574 5.24215H5.9999V9.74965C5.9999 10.1621 6.3374 10.4996 6.7499 10.4996C7.1624 10.4996 7.4999 10.1621 7.4999 9.74965V5.24215H8.8424C9.1799 5.24215 9.3449 4.83715 9.1049 4.60465L7.0124 2.51215C6.8699 2.36965 6.6299 2.36965 6.4874 2.51215Z" fill="#323232"/>
</svg>
