<svg width="40" height="40" viewBox="0 0 40 40" fill="none" xmlns="http://www.w3.org/2000/svg">
<g clip-path="url(#clip0_617_665)">
<path d="M29.1635 24.02C28.764 23.8202 26.1673 22.6217 25.7678 22.422C25.3683 22.2222 24.9688 22.2222 24.5693 22.6217C24.1698 23.0212 23.3708 24.2197 22.9713 24.6192C22.7715 25.0187 22.372 25.0187 21.9725 24.819C20.5743 24.2197 19.176 23.4207 17.9775 22.422C16.9788 21.4232 15.98 20.2247 15.181 19.0262C14.9813 18.6267 15.181 18.2272 15.3808 18.0275C15.5805 17.8277 15.7803 17.4282 16.1798 17.2285C16.3795 17.0287 16.5793 16.6292 16.5793 16.4295C16.779 16.2297 16.779 15.8302 16.5793 15.6305C16.3795 15.4307 15.3808 13.0337 14.9813 12.035C14.7815 10.6367 14.382 10.6367 13.9825 10.6367C13.7828 10.6367 13.3833 10.6367 12.9838 10.6367C12.5843 10.6367 11.985 11.0362 11.7853 11.236C10.5868 12.4345 9.98752 13.8327 9.98752 15.4307C10.1873 17.2285 10.7865 19.0262 11.985 20.6242C14.1823 23.8202 16.9788 26.417 20.3745 28.015C21.3733 28.4145 22.1723 28.814 23.171 29.0137C24.1698 29.4132 25.1685 29.4132 26.367 29.2135C27.7653 29.0137 28.9638 28.015 29.7628 26.8165C30.1623 26.0175 30.1623 25.2185 29.9625 24.4195C29.9625 24.4195 29.563 24.2197 29.1635 24.02ZM34.1573 5.8427C26.367 -1.94757 13.7828 -1.94757 5.99251 5.8427C-0.399501 12.2347 -1.598 22.0225 2.7965 29.8127L0 40L10.5868 37.2035C13.583 38.8015 16.779 39.6005 19.975 39.6005C30.9613 39.6005 39.7503 30.8115 39.7503 19.8252C39.9501 14.6317 37.7528 9.63795 34.1573 5.8427ZM28.764 33.8077C26.1673 35.4057 23.171 36.4045 19.975 36.4045C16.9788 36.4045 14.1823 35.6055 11.5855 34.2072L10.9863 33.8077L4.79401 35.4057L6.39201 29.4132L5.99251 28.814C1.1985 20.824 3.5955 10.8365 11.3858 5.8427C19.176 0.848939 29.1635 3.44569 33.9576 11.0362C38.7516 18.8265 36.5543 29.0137 28.764 33.8077Z" fill="white"/>
</g>
<defs>
<clipPath id="clip0_617_665">
<rect width="40" height="40" fill="white"/>
</clipPath>
</defs>
</svg>
