<svg width="40" height="40" viewBox="0 0 40 40" fill="none" xmlns="http://www.w3.org/2000/svg">
<path fill-rule="evenodd" clip-rule="evenodd" d="M32.9869 9.02439C34.4204 9.4095 35.5543 10.5434 35.9394 11.9769C36.6454 14.5871 36.6668 20 36.6668 20C36.6668 20 36.6668 25.4343 35.9608 28.0231C35.5757 29.4566 34.4418 30.5905 33.0083 30.9756C30.4195 31.6816 20.0002 31.6816 20.0002 31.6816C20.0002 31.6816 9.58082 31.6816 6.99203 30.9756C5.55857 30.5905 4.42464 29.4566 4.03953 28.0231C3.3335 25.4129 3.3335 20 3.3335 20C3.3335 20 3.3335 14.5871 4.01813 11.9983C4.40324 10.5648 5.53718 9.4309 6.97064 9.04579C9.55943 8.33975 19.9788 8.31836 19.9788 8.31836C19.9788 8.31836 30.3981 8.31836 32.9869 9.02439ZM25.3061 20L16.6625 25.0064V14.9936L25.3061 20Z" fill="white"/>
</svg>
